<svg xmlns="http://www.w3.org/2000/svg" viewBox="0 0 32 32" x="0px" y="0px"><title>corporate</title><g data-name="Layer 49"><rect x="13" y="7" width="2" height="2"/><rect x="13" y="11" width="2" height="2"/><rect x="13" y="15" width="2" height="2"/><rect x="13" y="19" width="2" height="2"/><rect x="17" y="7" width="2" height="2"/><rect x="17" y="11" width="2" height="2"/><rect x="17" y="15" width="2" height="2"/><rect x="17" y="19" width="2" height="2"/><path d="M28,27H23V9h2V24a1,1,0,0,0,2,0V8a1,1,0,0,0-1-1H23V4a1,1,0,0,0-1-1H10A1,1,0,0,0,9,4V7H6A1,1,0,0,0,5,8V27H4a1,1,0,0,0,0,2H28a1,1,0,0,0,0-2ZM7,9H9V24a1,1,0,0,0,2,0V5H21V27H19V24a1,1,0,0,0-1-1H14a1,1,0,0,0-1,1v3H7ZM17,27H15V25h2Z"/></g></svg>